<?xml version="1.0" encoding="iso-8859-1"?>
<!-- Generator: Adobe Illustrator 22.0.1, SVG Export Plug-In . SVG Version: 6.00 Build 0)  -->
<svg version="1.1" xmlns="http://www.w3.org/2000/svg" xmlns:xlink="http://www.w3.org/1999/xlink" x="0px" y="0px"
	 viewBox="0 0 128 128" style="enable-background:new 0 0 128 128;" xml:space="preserve">
<g id="_x38_">
	<path style="fill:#65A760;" d="M28.252,60.519H15.403V49.953h12.849V60.519z M49.337,49.953H36.491v10.566h12.846V49.953z
		 M70.425,49.953H57.576v10.566h12.849V49.953z M91.51,49.953H78.664v10.566H91.51V49.953z M112.597,49.953H99.749v10.566h12.849
		V49.953z M28.252,65.781H15.403v10.566h12.849V65.781z M49.337,65.781H36.491v10.566h12.846V65.781z M70.425,65.781H57.576v10.566
		h12.849V65.781z M91.51,65.781H78.664v10.566H91.51V65.781z M112.597,65.781H99.749v10.566h12.849V65.781z M28.252,81.606H15.403
		v10.566h12.849V81.606z M49.337,81.606H36.491v10.566h12.846V81.606z M70.425,81.606H57.576v10.566h12.849V81.606z M91.51,81.606
		H78.664v10.566H91.51V81.606z"/>
	<path style="fill:#44566B;" d="M101.622,23.783v-4.099c0-2.187-1.775-3.962-3.962-3.962c-2.187,0-3.962,1.775-3.962,3.962v4.099
		H68.233v-4.099c0-2.187-1.775-3.962-3.962-3.962c-2.187,0-3.962,1.775-3.962,3.962v4.099H34.303v-4.099
		c0-2.187-1.775-3.962-3.962-3.962c-2.187,0-3.962,1.775-3.962,3.962v4.099H0v88.496H128V23.783H101.622z M123.013,107.292H4.987
		V28.77h21.391v3.807c0,2.187,1.775,3.962,3.962,3.962c2.187,0,3.962-1.775,3.962-3.962V28.77h26.006v3.807
		c0,2.187,1.775,3.962,3.962,3.962c2.187,0,3.962-1.775,3.962-3.962V28.77h25.465v3.807c0,2.187,1.775,3.962,3.962,3.962
		c2.187,0,3.962-1.775,3.962-3.962V28.77h21.391V107.292z"/>
</g>
<g id="Layer_1">
</g>
</svg>
